HIERARCHY
ROOT root
{
	OFFSET 0.000000 0.000000 0.000000
	CHANNELS 6 Xposition Yposition Zposition Zrotation Yrotation Xrotation
	JOINT lhip
	{
		OFFSET 0.058581 -0.082280 -0.017664
		CHANNELS 3 Zrotation Yrotation Xrotation
		JOINT lknee
		{
			OFFSET 0.043451 -0.386469 0.008037
			CHANNELS 3 Zrotation Yrotation Xrotation
			JOINT lankle
			{
				OFFSET -0.014790 -0.426874 -0.037428
				CHANNELS 3 Zrotation Yrotation Xrotation
				JOINT ltoe
				{
					OFFSET 0.041054 -0.060286 0.122042
					CHANNELS 3 Zrotation Yrotation Xrotation
					End Site
					{
						OFFSET 0.000000 0.000000 0.000000
					}
				}
			}
		}
	}
	JOINT rhip
	{
		OFFSET -0.060310 -0.090513 -0.013543
		CHANNELS 3 Zrotation Yrotation Xrotation
		JOINT rknee
		{
			OFFSET -0.043257 -0.383688 -0.004843
			CHANNELS 3 Zrotation Yrotation Xrotation
			JOINT rankle
			{
				OFFSET 0.019056 -0.420046 -0.034562
				CHANNELS 3 Zrotation Yrotation Xrotation
				JOINT rtoe
				{
					OFFSET -0.034840 -0.062106 0.130323
					CHANNELS 3 Zrotation Yrotation Xrotation
					End Site
					{
						OFFSET 0.000000 0.000000 0.000000
					}
				}
			}
		}
	}
	JOINT lowerback
	{
		OFFSET 0.004439 0.124404 -0.038385
		CHANNELS 3 Zrotation Yrotation Xrotation
		JOINT upperback
		{
			OFFSET 0.004488 0.137956 0.026820
			CHANNELS 3 Zrotation Yrotation Xrotation
			JOINT chest
			{
				OFFSET -0.002265 0.056032 0.002855
				CHANNELS 3 Zrotation Yrotation Xrotation
				JOINT lowerneck
				{
					OFFSET -0.013390 0.211636 -0.033468
					CHANNELS 3 Zrotation Yrotation Xrotation
					JOINT upperneck
					{
						OFFSET 0.010113 0.088937 0.050410
						CHANNELS 3 Zrotation Yrotation Xrotation
						End Site
						{
							OFFSET 0.000000 0.000000 0.000000
						}
					}
				}
				JOINT lclavicle
				{
					OFFSET 0.071702 0.114000 -0.018898
					CHANNELS 3 Zrotation Yrotation Xrotation
					JOINT lshoulder
					{
						OFFSET 0.122921 0.045205 -0.019046
						CHANNELS 3 Zrotation Yrotation Xrotation
						JOINT lelbow
						{
							OFFSET 0.255332 -0.015649 -0.022946
							CHANNELS 3 Zrotation Yrotation Xrotation
							JOINT lwrist
							{
								OFFSET 0.265709 0.012698 -0.007375
								CHANNELS 3 Zrotation Yrotation Xrotation
								End Site
								{
									OFFSET 0.000000 0.000000 0.000000
								}
							}
						}
					}
				}
				JOINT rclavicle
				{
					OFFSET -0.082954 0.112472 -0.023707
					CHANNELS 3 Zrotation Yrotation Xrotation
					JOINT rshoulder
					{
						OFFSET -0.113228 0.046853 -0.008472
						CHANNELS 3 Zrotation Yrotation Xrotation
						JOINT relbow
						{
							OFFSET -0.260127 -0.014369 -0.031269
							CHANNELS 3 Zrotation Yrotation Xrotation
							JOINT rwrist
							{
								OFFSET -0.269108 0.006794 -0.006027
								CHANNELS 3 Zrotation Yrotation Xrotation
								End Site
								{
									OFFSET 0.000000 0.000000 0.000000
								}
							}
						}
					}
				}
			}
		}
	}
}
MOTION
Frames: 17
Frame Time: 0.033333
0.368937 0.173086 0.988464 84.544415 0.108536 90.516968 6.221594 7.033370 3.832510 -3.613857 -1.439479 -2.234120 0.712552 9.083327 -5.331104 0.000000 -0.000000 0.000000 -7.546063 -4.541981 -1.086350 1.728620 -1.828480 4.128829 6.074412 -2.248268 -6.348696 0.000000 -0.000000 0.000000 -8.608955 4.010264 -9.726950 5.716521 -3.830289 27.275862 0.570670 3.306997 -10.727539 1.590057 0.784996 8.980880 13.432142 0.567910 -11.999779 -29.729798 -5.367503 1.243408 -51.321167 -8.547813 22.443156 -0.563072 -34.192523 9.693405 1.358261 -16.101047 7.747558 33.241181 7.308034 8.891140 47.222335 7.909776 10.235138 -6.611487 38.375211 -7.674211 -17.263088 19.112073 -6.485994 
0.368230 0.172974 0.988139 84.378279 0.217124 89.946464 6.378598 6.696172 4.660567 -3.673925 -0.910523 -2.582585 0.768035 8.851543 -4.965096 0.000000 -0.000000 0.000000 -7.533470 -4.620218 -0.615041 1.667216 -1.832369 4.285702 6.330147 -1.855849 -6.091196 0.000000 -0.000000 0.000000 -8.225178 3.670964 -8.824747 5.255565 -3.461050 25.962403 0.761205 3.767516 -8.683486 2.421524 1.474606 7.957672 12.580832 -0.482170 -10.939649 -28.521595 -5.970075 1.415979 -52.276749 -8.861148 21.925757 0.641103 -38.420971 8.477512 -0.536927 -16.906451 7.373187 32.179087 7.397363 8.887328 49.042431 6.038628 7.315374 -12.005485 46.665149 -13.848828 -4.688614 15.807328 -0.122514 
0.367630 0.172713 0.988375 84.501131 0.108440 90.122792 6.208223 6.546674 4.406017 -3.649749 -0.711475 -2.544979 0.884738 8.651271 -4.927699 0.000000 -0.000000 0.000000 -7.564444 -4.546265 -0.931985 1.568520 -1.946875 4.514287 6.327073 -1.904634 -6.154656 0.000000 -0.000000 0.000000 -8.209354 3.750593 -8.490145 5.129066 -3.394314 26.021992 0.552361 3.416229 -9.355621 2.757746 1.411020 8.417617 12.243095 -0.548994 -10.034164 -28.017547 -5.374195 1.630226 -52.256039 -8.803467 22.149014 1.354192 -42.855050 9.183211 1.513155 -17.271115 5.766984 32.007866 6.713568 8.774213 49.442195 6.539488 8.138706 -13.382716 50.454926 -12.978894 -6.280128 16.764737 -2.424359 
0.366651 0.172780 0.988461 84.411480 0.084330 90.008515 6.173499 6.424020 4.459779 -3.645750 -0.260370 -2.473526 0.982435 8.345147 -4.902154 0.000000 -0.000000 0.000000 -7.563499 -4.476094 -1.121250 1.421612 -2.317452 4.957056 6.336777 -1.471730 -6.168291 0.000000 -0.000000 0.000000 -8.232056 3.653783 -8.427364 5.022423 -3.422314 26.329856 0.447108 3.535626 -9.227203 2.877721 1.384913 8.988732 11.764847 -0.859021 -8.556310 -27.393572 -5.391720 1.625891 -52.435006 -9.099940 22.631820 3.220934 -49.661662 7.950670 4.356892 -17.672564 3.769921 31.508093 7.249312 8.895983 49.491783 6.976815 8.450498 -16.554072 56.630755 -17.122526 -8.395852 17.656870 -2.873321 
0.366389 0.172836 0.988598 84.398701 0.073317 89.948784 6.161611 6.374352 4.494826 -3.658462 -0.191387 -2.433676 1.045502 8.289952 -4.905137 0.000000 -0.000000 0.000000 -7.560937 -4.471520 -1.127652 1.365934 -2.366699 5.058090 6.398195 -1.408702 -6.151721 0.000000 -0.000000 0.000000 -8.294263 3.670021 -8.353011 5.069650 -3.440952 26.344258 0.436552 3.524732 -9.198634 2.731800 1.181499 9.276691 11.719925 -0.735775 -8.102539 -27.264702 -5.253382 1.710306 -52.440652 -9.474459 22.719997 3.688645 -51.957694 7.954752 5.238608 -17.628323 2.887178 31.522053 6.903861 8.786089 49.308188 7.478010 8.317521 -17.320454 58.885759 -17.460249 -8.493395 17.514862 -3.247516 
0.365912 0.173073 0.988718 84.353532 0.031783 89.900791 6.088097 6.273910 4.440590 -3.627704 0.162396 -2.268278 1.114879 8.029596 -4.940327 0.000000 -0.000000 0.000000 -7.576066 -4.373712 -1.223702 1.223505 -2.606414 5.297183 6.458417 -1.142373 -6.143838 0.000000 -0.000000 0.000000 -8.310234 3.680174 -8.324382 5.033062 -3.386229 26.531721 0.334096 3.541851 -9.255609 2.755922 1.113264 9.792999 11.516309 -0.914559 -7.219383 -26.862097 -5.302420 1.727638 -52.494617 -10.025275 23.065578 5.274571 -56.671209 7.159168 5.971218 -18.049576 1.322258 31.109988 7.012864 8.807400 49.602700 8.084428 8.518007 -20.972028 62.960240 -20.804268 -9.267256 17.835044 -3.962600 
0.365587 0.173426 0.988873 84.295060 -0.047841 89.915739 5.984213 6.171143 4.356267 -3.633953 0.531595 -2.134295 1.186153 7.806977 -4.987296 0.000000 -0.000000 0.000000 -7.680851 -4.315405 -1.296133 1.178976 -2.860716 5.389085 6.475713 -0.907537 -6.104194 0.000000 -0.000000 0.000000 -8.304506 3.835777 -8.243959 4.950520 -3.318965 26.816403 0.169942 3.423411 -9.667323 2.868587 1.056006 10.405289 11.364274 -1.045368 -6.377947 -26.551879 -5.276276 1.742665 -52.346293 -10.612889 23.428137 7.259350 -61.513692 5.865375 7.177357 -18.232178 0.185591 30.902337 6.928499 8.658000 49.701253 8.713169 8.883367 -25.311338 67.015476 -24.645230 -10.223917 18.204411 -4.555961 
0.365606 0.173663 0.988930 84.177759 -0.082658 89.931845 5.959921 6.100029 4.333564 -3.668290 0.924333 -2.086783 1.301845 7.552486 -4.950639 0.000000 -0.000000 0.000000 -7.735528 -4.290031 -1.319309 1.116810 -3.124053 5.430672 6.523471 -0.561907 -6.071595 0.000000 -0.000000 0.000000 -8.335130 3.883358 -8.411587 4.883419 -3.257654 27.286389 0.079439 3.459241 -9.895707 2.932472 1.059864 10.926059 11.159407 -1.156597 -5.722426 -26.240174 -5.475820 1.726697 -52.377973 -11.125689 23.804376 10.574401 -66.349809 2.928839 8.754815 -18.240987 -0.281060 30.520868 7.159474 8.661361 49.829602 9.401832 9.271766 -31.749612 70.773366 -30.482754 -11.713116 18.419102 -5.354340 
0.365711 0.173877 0.989067 84.016149 -0.114766 89.890907 5.956382 6.097854 4.411750 -3.707579 1.277115 -2.104360 1.327938 7.315010 -4.953160 0.000000 -0.000000 0.000000 -7.784205 -4.203239 -1.285406 1.059091 -3.362371 5.442666 6.570642 -0.256346 -6.038316 0.000000 -0.000000 0.000000 -8.338017 3.931724 -8.479016 4.816322 -3.141262 27.672668 -0.006715 3.572235 -10.181858 3.005254 1.162901 11.591945 10.978095 -1.303282 -5.201468 -25.887916 -5.839465 1.707339 -52.567115 -11.855318 24.224852 15.235054 -70.493611 -1.183322 10.152340 -18.231843 -1.533104 29.914064 7.760034 8.866961 50.270487 9.930179 9.716731 -41.686340 73.699071 -40.085579 -13.449297 18.838139 -6.172739 
0.365965 0.174363 0.989129 83.981809 -0.150321 89.777535 5.921409 6.059537 4.555900 -3.705524 1.381512 -2.147702 1.418405 7.204231 -4.923109 0.000000 -0.000000 0.000000 -7.861412 -4.179547 -1.120996 1.032331 -3.456319 5.398846 6.624894 -0.137477 -5.998611 0.000000 -0.000000 0.000000 -8.387812 3.878876 -8.533906 4.810665 -3.139515 27.812890 -0.064077 3.690637 -9.985573 2.888782 1.029755 11.857256 10.849485 -1.174499 -4.392809 -25.594357 -6.056706 1.679470 -52.858082 -12.943570 24.483922 21.334600 -74.318680 -6.313363 11.884143 -18.001244 -2.359675 29.635472 7.798369 8.789450 50.254353 10.988962 9.861262 -52.582970 76.436134 -50.369530 -14.596349 18.443116 -7.183118 
0.365937 0.174709 0.988851 83.953251 -0.109995 89.777422 6.003264 6.025877 4.498651 -3.763633 1.606753 -2.107153 1.433765 7.014072 -4.915802 0.000000 -0.000000 0.000000 -7.836845 -4.188182 -1.181401 0.967158 -3.670442 5.504624 6.703689 0.117870 -6.047045 0.000000 -0.000000 0.000000 -8.444979 3.707721 -8.759221 4.833916 -3.182186 27.866927 -0.035636 3.956688 -9.566617 2.693864 0.922420 12.173937 10.719436 -1.080994 -3.765194 -25.147662 -6.516085 1.456288 -53.415684 -13.884909 24.829628 31.203712 -77.595958 -15.399990 13.050766 -17.781090 -3.211190 28.884154 8.353708 8.642043 50.259164 11.972067 10.001023 -66.300680 78.169186 -63.391215 -15.603566 18.528596 -7.941368 
0.365861 0.175084 0.988848 84.048161 -0.053275 89.880343 6.037947 5.917930 4.276669 -3.707612 2.064529 -2.005295 1.266940 6.574366 -4.906107 0.000000 -0.000000 0.000000 -7.779383 -4.186723 -1.335629 0.875928 -4.150769 5.606575 6.792903 0.485003 -6.088900 0.000000 -0.000000 0.000000 -8.347933 3.732696 -8.838121 4.799562 -3.241572 28.193763 -0.111535 4.006476 -9.977025 2.726535 1.039427 12.721648 10.542099 -1.343198 -3.105692 -24.730351 -6.836998 1.353128 -53.924794 -14.763230 25.128433 44.445783 -79.992549 -27.621480 13.908684 -18.903916 -4.101200 28.387169 8.916320 8.667389 50.293128 12.455165 10.271552 -81.258833 78.694956 -76.676772 -16.146932 21.562708 -8.080920 
0.365861 0.175616 0.989085 84.225867 -0.062238 90.018332 5.972288 5.759077 3.997660 -3.644185 2.329329 -1.879550 1.275423 6.324471 -4.906363 0.000000 -0.000000 0.000000 -7.788090 -4.213003 -1.470967 0.823849 -4.454891 5.631712 6.779382 0.657379 -6.062435 0.000000 -0.000000 0.000000 -8.189321 3.932671 -8.624233 4.685883 -3.311081 28.279969 -0.236165 3.822898 -10.634817 2.786158 0.942952 13.509842 10.381004 -1.421394 -2.718425 -24.368845 -6.828376 1.341556 -54.290225 -15.756447 25.523736 62.930620 -81.918324 -45.386516 14.968572 -18.932043 -4.752014 28.040530 8.842335 8.524396 50.503503 13.192100 10.705010 -97.792249 78.877801 -92.340608 -16.975957 22.049081 -8.788647 
0.366147 0.175786 0.989238 84.183734 -0.047117 89.867043 6.004347 5.724306 4.176481 -3.657424 2.496818 -1.892449 1.301245 6.190348 -4.923553 0.000000 -0.000000 0.000000 -7.778135 -4.200729 -1.329475 0.734312 -4.638831 5.696124 6.840862 0.882111 -6.079349 0.000000 -0.000000 0.000000 -8.308044 3.762837 -8.678410 4.730826 -3.323769 28.309292 -0.139336 4.073983 -10.195721 2.564681 0.880989 13.913850 10.255654 -1.257355 -2.280256 -24.081343 -7.405754 1.199685 -54.649308 -16.638972 25.870161 87.828341 -82.235183 -69.895351 15.984297 -18.823351 -5.049053 27.445294 9.366147 8.422521 50.463183 14.034475 10.828285 -113.111967 78.131686 -107.110570 -17.524517 22.043959 -9.494046 
0.367349 0.175333 0.989572 84.453546 -0.106291 90.176033 5.984647 5.551370 3.795237 -3.698599 2.774086 -1.780530 1.308525 5.877767 -4.875132 0.000000 -0.000000 0.000000 -7.751947 -4.431001 -1.455612 0.640641 -4.909339 5.595217 6.839149 1.061867 -6.014253 0.000000 -0.000000 0.000000 -8.429888 4.173825 -9.131828 4.641408 -3.650561 29.064591 -0.171341 3.797770 -11.129710 2.493806 0.788027 14.690562 10.252375 -1.391086 -1.776615 -23.757682 -7.473972 1.389177 -54.717836 -17.533930 26.090545 110.557767 -81.741981 -92.130671 17.148985 -18.705508 -5.367577 27.271326 9.257393 8.518933 50.668259 14.508334 11.378416 -126.447738 76.936710 -119.935235 -18.188955 21.786160 -10.425815 
0.367927 0.175421 0.989523 84.390127 -0.161453 90.234476 5.930603 5.548395 3.740812 -3.708786 2.929486 -1.724387 1.286094 5.758188 -4.901079 0.000000 -0.000000 0.000000 -7.805929 -4.434253 -1.539512 0.584608 -5.060060 5.701446 6.851036 1.229248 -6.034155 0.000000 -0.000000 0.000000 -8.479257 4.247914 -9.318556 4.619557 -3.701172 29.364675 -0.236275 3.816401 -11.294805 2.447813 0.799631 15.350180 10.219675 -1.267539 -1.378979 -23.330710 -7.730794 1.313325 -55.009449 -18.671183 26.126924 126.119737 -80.510345 -106.536092 18.295663 -18.750595 -6.218165 26.835207 9.542264 8.608484 50.749935 15.456755 11.483964 -135.934429 75.516022 -128.902332 -18.950020 22.087363 -11.262727 
0.367234 0.175990 0.989577 84.053597 -0.265156 90.039246 5.771549 5.519554 3.926190 -3.681798 3.352334 -1.698198 1.383513 5.651403 -4.922034 0.000000 -0.000000 0.000000 -7.946552 -4.029400 -1.655656 0.481292 -5.301380 6.100422 6.925966 1.490442 -6.085819 0.000000 -0.000000 0.000000 -8.400506 4.057144 -8.761378 4.506059 -3.295437 29.039301 -0.327213 4.001156 -11.102645 2.689084 1.053712 15.698587 10.048099 -1.419819 -0.943852 -22.813857 -8.177716 0.944469 -55.797771 -19.276844 26.873614 134.654756 -78.297735 -115.046822 18.781270 -19.099824 -5.993125 26.452514 10.167112 8.494735 50.767972 16.007423 12.045431 -142.134030 73.479258 -134.975165 -19.464105 22.361872 -11.563462 
